<svg width="165" height="38" viewBox="0 0 165 38" fill="none" xmlns="http://www.w3.org/2000/svg">
<g clip-path="url(#clip0)">
<path fill-rule="evenodd" clip-rule="evenodd" d="M39.215 3.39397C38.2755 2.92361 37.1124 2.78387 35.8121 3.01721C35.0104 3.16167 34.1555 3.44833 33.2687 3.88602C32.4174 4.30776 31.6021 4.83665 30.8295 5.45032L33.9585 7.01765C34.7311 6.40398 35.5463 5.87509 36.3967 5.45415C37.2835 5.01566 38.1375 4.729 38.9401 4.58455C40.2404 4.3512 41.4035 4.49094 42.343 4.9613L39.215 3.39397Z" fill="#F0A72E"/>
<mask id="mask0" mask-type="alpha" maskUnits="userSpaceOnUse" x="0" y="0" width="32" height="35">
<path fill-rule="evenodd" clip-rule="evenodd" d="M0.958618 0.90794L31.2612 0.946178L31.219 34.3597L0.916455 34.3215L0.958618 0.90794Z" fill="white"/>
</mask>
<g mask="url(#mask0)">
<path fill-rule="evenodd" clip-rule="evenodd" d="M28.1304 1.50232C27.045 0.958246 25.6997 0.797492 24.1966 1.06735C23.2684 1.23403 22.2795 1.56528 21.2532 2.07312C19.5458 2.9182 17.9421 4.14706 16.551 5.60079C13.9914 8.27594 12.1515 11.7121 11.7029 14.9126C10.9356 15.0603 10.1132 15.3414 9.26931 15.7592C7.79732 16.4871 6.41511 17.5452 5.21677 18.7969C2.64877 21.4769 0.918414 25.0427 0.923793 28.1487C0.929304 30.4138 1.85624 32.0095 3.35519 32.7604L6.4832 34.3285C4.98332 33.5769 4.05638 31.9811 4.0518 29.716C4.04549 26.61 5.77678 23.0442 8.34384 20.3643C9.54311 19.1125 10.9244 18.0544 12.3973 17.3265C13.2403 16.9088 14.0636 16.6277 14.83 16.48C15.2785 13.2794 17.1194 9.84327 19.679 7.16812C21.0701 5.7144 22.6729 4.48553 24.3812 3.64045C25.4066 3.13261 26.3955 2.80136 27.3237 2.63468C28.8277 2.36403 30.1721 2.52558 31.2584 3.06966L28.1304 1.50232Z" fill="#F0A72E"/>
</g>
<path fill-rule="evenodd" clip-rule="evenodd" d="M24.381 3.64062C29.225 1.2441 33.2458 2.7726 33.9583 7.01766C34.7309 6.40399 35.5461 5.8751 36.3965 5.45415C41.0135 3.17005 44.766 5.01392 44.7752 9.57061C44.7843 14.1281 41.0466 19.6768 36.4296 21.9609L12.4302 33.8334C7.80676 36.1207 4.06073 34.2736 4.05161 29.7162C4.04248 25.1587 7.77272 19.614 12.3962 17.3267C13.2411 16.9089 14.0634 16.6278 14.8298 16.4801C15.5223 11.5399 19.5296 6.04032 24.381 3.64062Z" fill="#FFCA00"/>
<path fill-rule="evenodd" clip-rule="evenodd" d="M63.6579 5.66263C62.7184 5.19227 61.5553 5.05253 60.255 5.28587C59.4523 5.43033 58.5983 5.71699 57.7107 6.15467C56.8602 6.57562 56.045 7.10531 55.2724 7.71898L58.4004 9.28631C59.173 8.67264 59.9882 8.14295 60.8396 7.72281C61.7254 7.28352 62.5803 6.99766 63.3821 6.85321C64.6833 6.61986 65.8454 6.7596 66.7849 7.22996L63.6579 5.66263Z" fill="#D43E3E"/>
<path fill-rule="evenodd" clip-rule="evenodd" d="M52.5688 3.76594C51.4834 3.22186 50.1381 3.06031 48.6351 3.33017C47.7068 3.49685 46.7198 3.8281 45.6954 4.33515C43.9935 5.17704 42.3945 6.40271 41.0062 7.85404C38.4447 10.5316 36.601 13.9741 36.1516 17.1779C35.3777 17.3288 34.5619 17.6067 33.7114 18.0276C32.2413 18.7547 30.861 19.8128 29.6626 21.0638C27.0946 23.7437 25.3605 27.3111 25.3668 30.4171C25.3714 32.6814 26.3002 34.2756 27.7983 35.0272L30.9263 36.5937C29.4273 35.8429 28.4985 34.2488 28.4939 31.9844C28.4876 28.8784 30.2226 25.311 32.7897 22.6311C33.989 21.3793 35.3693 20.322 36.8385 19.595C37.6908 19.174 38.5057 18.8961 39.2796 18.7452C39.729 15.5407 41.5727 12.0989 44.1342 9.42137C45.5225 7.97004 47.1215 6.74437 48.8234 5.90168C49.8469 5.39543 50.8348 5.06418 51.7621 4.8975C53.2661 4.62764 54.6105 4.7892 55.6968 5.33328L52.5688 3.76594Z" fill="#D43E3E"/>
<path fill-rule="evenodd" clip-rule="evenodd" d="M48.823 5.90184C53.667 3.50612 57.6886 5.04102 58.4002 9.28607C59.1728 8.6724 59.988 8.14351 60.8394 7.72257C65.4564 5.43847 69.208 7.28234 69.2171 11.839C69.2262 16.3965 65.4895 21.9452 60.8725 24.2293L36.8722 36.1018C32.2561 38.3859 28.5036 36.5421 28.4945 31.9846C28.4853 27.4271 32.2221 21.8784 36.8391 19.5943C37.6904 19.1742 38.5063 18.8963 39.2792 18.7446C39.9717 13.8051 43.979 8.29835 48.823 5.90184Z" fill="#FA7564"/>
<path d="M82.8675 25.406L82.884 12.326L85.504 12.3293L87.8159 18.7322C87.9621 19.1457 88.1015 19.5726 88.2343 20.0128C88.3671 20.4396 88.5066 20.8664 88.6527 21.2933L88.7327 21.2934C88.8799 20.8669 89.0138 20.4404 89.1343 20.0139C89.2682 19.5741 89.4087 19.1476 89.5559 18.7344L91.824 12.3373L94.464 12.3406L94.4475 25.4206L92.3075 25.4179L92.315 19.4379C92.3154 19.1312 92.3225 18.7979 92.3363 18.4379C92.3634 18.078 92.3905 17.718 92.4177 17.358C92.4448 16.9847 92.4786 16.6248 92.519 16.2782C92.5595 15.9182 92.5932 15.5849 92.6203 15.2783L92.5403 15.2782L91.4764 18.3168L89.329 24.1941L87.949 24.1924L85.7964 18.3097L84.7603 15.2684L84.6803 15.2683C84.7066 15.575 84.7328 15.9083 84.759 16.2684C84.7986 16.6151 84.8315 16.9751 84.8577 17.3485C84.8972 17.7085 84.9234 18.0686 84.9363 18.4286C84.9625 18.7886 84.9754 19.122 84.975 19.4286L84.9675 25.4086L82.8675 25.406ZM99.5997 25.6671C98.7331 25.666 98.0334 25.4051 97.5007 24.8845C96.968 24.3504 96.7023 23.6501 96.7034 22.7834C96.704 22.2634 96.8113 21.8036 97.0251 21.4039C97.2523 20.9908 97.5994 20.6379 98.0664 20.3452C98.5468 20.0524 99.1471 19.8065 99.8674 19.6074C100.601 19.4084 101.474 19.2561 102.488 19.1507C102.475 18.8974 102.435 18.6573 102.369 18.4306C102.316 18.1905 102.216 17.9837 102.07 17.8102C101.937 17.6234 101.757 17.4832 101.53 17.3895C101.304 17.2826 101.024 17.2289 100.69 17.2285C100.21 17.2279 99.7369 17.3206 99.27 17.5067C98.8165 17.6928 98.3695 17.9189 97.9292 18.185L97.0911 16.6439C97.6382 16.298 98.2519 15.9987 98.9322 15.7463C99.6126 15.4938 100.346 15.368 101.133 15.369C102.359 15.3706 103.272 15.7384 103.871 16.4725C104.484 17.1933 104.789 18.2403 104.787 19.6136L104.78 25.4336L102.88 25.4312L102.721 24.351L102.641 24.3509C102.201 24.7237 101.727 25.0365 101.22 25.2891C100.727 25.5419 100.186 25.6678 99.5997 25.6671ZM100.342 23.868C100.742 23.8685 101.102 23.7757 101.422 23.5894C101.756 23.4032 102.11 23.1369 102.483 22.7907L102.486 20.5907C101.819 20.6699 101.259 20.7759 100.806 20.9086C100.352 21.0414 99.9854 21.1943 99.7051 21.3672C99.4249 21.5269 99.2247 21.7133 99.1044 21.9265C98.9842 22.1397 98.9239 22.3662 98.9236 22.6062C98.923 23.0462 99.056 23.3664 99.3224 23.5668C99.5888 23.7671 99.9287 23.8675 100.342 23.868ZM107.183 25.4367L107.195 15.6167L109.095 15.6191L109.253 17.3593L109.333 17.3594C109.68 16.7198 110.101 16.2337 110.595 15.901C111.089 15.5549 111.595 15.3822 112.115 15.3829C112.582 15.3835 112.955 15.4506 113.235 15.5843L112.833 17.5838C112.659 17.5302 112.499 17.49 112.353 17.4632C112.206 17.4363 112.026 17.4228 111.813 17.4225C111.426 17.422 111.019 17.5748 110.592 17.881C110.165 18.1738 109.798 18.6933 109.49 19.4396L109.483 25.4396L107.183 25.4367ZM117.754 25.69C117.18 25.6893 116.694 25.602 116.294 25.4282C115.907 25.2543 115.588 25.0139 115.335 24.707C115.095 24.3867 114.916 24.0131 114.796 23.5863C114.69 23.1461 114.637 22.6594 114.638 22.1261L114.644 17.4461L113.244 17.4443L113.246 15.7243L114.766 15.6262L115.05 12.9466L116.97 12.949L116.966 15.629L119.466 15.6322L119.464 17.4522L116.964 17.449L116.958 22.129C116.957 23.2757 117.416 23.8496 118.336 23.8507C118.509 23.851 118.683 23.8312 118.856 23.7914C119.043 23.7516 119.209 23.6985 119.356 23.632L119.754 25.3325C119.487 25.4255 119.18 25.5051 118.834 25.5714C118.5 25.651 118.14 25.6905 117.754 25.69ZM123.121 25.6968C122.254 25.6957 121.554 25.4348 121.022 24.9141C120.489 24.3801 120.223 23.6798 120.224 22.8131C120.225 22.2931 120.332 21.8333 120.546 21.4335C120.773 21.0205 121.12 20.6676 121.587 20.3748C122.068 20.0821 122.668 19.8362 123.388 19.6371C124.122 19.438 124.995 19.2858 126.009 19.1804C125.996 18.9271 125.956 18.687 125.89 18.4603C125.837 18.2202 125.737 18.0134 125.591 17.8399C125.457 17.6531 125.278 17.5128 125.051 17.4192C124.825 17.3123 124.545 17.2586 124.211 17.2582C123.731 17.2575 123.258 17.3503 122.791 17.5364C122.337 17.7225 121.89 17.9486 121.45 18.2147L120.612 16.6736C121.159 16.3276 121.773 16.0284 122.453 15.7759C123.133 15.5235 123.867 15.3977 124.654 15.3987C125.88 15.4003 126.793 15.7681 127.392 16.5022C128.005 17.2229 128.31 18.27 128.308 19.6433L128.301 25.4633L126.401 25.4609L126.242 24.3807L126.162 24.3806C125.722 24.7534 125.248 25.0661 124.741 25.3188C124.247 25.5715 123.707 25.6975 123.121 25.6968ZM123.863 23.8977C124.263 23.8982 124.623 23.8053 124.943 23.6191C125.277 23.4328 125.63 23.1666 126.004 22.8204L126.007 20.6204C125.34 20.6996 124.78 20.8055 124.327 20.9383C123.873 21.0711 123.506 21.2239 123.226 21.3969C122.946 21.5566 122.746 21.743 122.625 21.9562C122.505 22.1693 122.445 22.3959 122.444 22.6359C122.444 23.0759 122.577 23.3961 122.843 23.5964C123.11 23.7968 123.45 23.8972 123.863 23.8977ZM135.803 25.7128C135.043 25.7118 134.357 25.6043 133.744 25.3902C133.144 25.1628 132.624 24.8088 132.185 24.3282C131.759 23.8477 131.426 23.2339 131.187 22.487C130.962 21.7267 130.85 20.8065 130.851 19.7265L130.86 12.3865L133.18 12.3895L133.171 19.9095C133.17 20.6161 133.229 21.2162 133.348 21.7097C133.481 22.1899 133.661 22.5767 133.887 22.8704C134.127 23.164 134.406 23.3777 134.726 23.5114C135.046 23.6318 135.406 23.6923 135.806 23.6928C136.206 23.6933 136.573 23.6338 136.906 23.5142C137.24 23.3813 137.527 23.1683 137.767 22.8753C138.007 22.5822 138.194 22.1958 138.328 21.716C138.462 21.2228 138.53 20.6229 138.531 19.9162L138.54 12.3962L140.76 12.399L140.751 19.739C140.75 20.819 140.635 21.7389 140.407 22.4986C140.18 23.245 139.846 23.8579 139.405 24.3373C138.978 24.8168 138.457 25.1695 137.844 25.3954C137.243 25.6079 136.563 25.7137 135.803 25.7128ZM143.659 25.4827L143.676 12.4027L147.796 12.4079C148.516 12.4088 149.182 12.4763 149.796 12.6104C150.422 12.7446 150.962 12.9719 151.415 13.2925C151.868 13.613 152.22 14.0335 152.473 14.5538C152.726 15.0608 152.852 15.6943 152.851 16.4543C152.85 17.1743 152.722 17.8008 152.468 18.3338C152.214 18.8668 151.86 19.313 151.407 19.6725C150.966 20.0186 150.439 20.2779 149.826 20.4505C149.225 20.6097 148.572 20.6889 147.865 20.688L145.985 20.6856L145.979 25.4856L143.659 25.4827ZM145.988 18.8256L147.688 18.8278C149.608 18.8302 150.569 18.0381 150.571 16.4514C150.572 15.6247 150.319 15.0578 149.813 14.7505C149.32 14.4298 148.587 14.2689 147.613 14.2677L145.993 14.2656L145.988 18.8256Z" fill="white"/>
</g>
<defs>
<clipPath id="clip0">
<rect x="0.959412" y="0.302612" width="164" height="36.7667" transform="rotate(0.0722995 0.959412 0.302612)" fill="white"/>
</clipPath>
</defs>
</svg>
